<svg id="Layer" enable-background="new 0 0 64 64" height="512" viewBox="0 0 64 64" width="512" xmlns="http://www.w3.org/2000/svg"><path d="m50.414 19.586c-.78-.781-2.048-.781-2.828 0-.781.781-.781 2.047 0 2.828l1.586 1.586h-30.672c-5.79 0-10.5 4.71-10.5 10.5s4.71 10.5 10.5 10.5h5.5c1.104 0 2-.896 2-2s-.896-2-2-2h-5.5c-3.584 0-6.5-2.916-6.5-6.5s2.916-6.5 6.5-6.5h30.672l-1.586 1.586c-.781.781-.781 2.047 0 2.828.39.391.902.586 1.414.586s1.024-.195 1.414-.586l5-5c.781-.781.781-2.047 0-2.828z"/></svg>